<?xml version="1.0" encoding="UTF-8" standalone="no"?>
<svg
   xmlns:dc="http://purl.org/dc/elements/1.1/"
   xmlns:cc="http://creativecommons.org/ns#"
   xmlns:rdf="http://www.w3.org/1999/02/22-rdf-syntax-ns#"
   xmlns:svg="http://www.w3.org/2000/svg"
   xmlns="http://www.w3.org/2000/svg"
   xmlns:sodipodi="http://sodipodi.sourceforge.net/DTD/sodipodi-0.dtd"
   xmlns:inkscape="http://www.inkscape.org/namespaces/inkscape"
   width="81.380447mm"
   height="64.318657mm"
   viewBox="0 0 81.380447 64.318657"
   version="1.1"
   id="svg8"
   sodipodi:docname="NK.svg"
   inkscape:version="1.0 (1.0+r73+1)">
  <defs
     id="defs2">
    <rect
       x="149.86581"
       y="82.470284"
       width="141.75818"
       height="16.297094"
       id="rect3243" />
    <rect
       x="-0.81210434"
       y="11.495953"
       width="265.34933"
       height="134.74065"
       id="rect3237" />
    <rect
       x="71.105919"
       y="26.586233"
       width="73.371605"
       height="43.111271"
       id="rect3231" />
    <rect
       x="10.723344"
       y="14.881567"
       width="381.84521"
       height="174.16878"
       id="rect3219" />
  </defs>
  <sodipodi:namedview
     fit-margin-bottom="0"
     fit-margin-right="0"
     fit-margin-left="0"
     fit-margin-top="0"
     id="base"
     pagecolor="#ffffff"
     bordercolor="#666666"
     borderopacity="1.0"
     inkscape:pageopacity="0.0"
     inkscape:pageshadow="2"
     inkscape:zoom="0.49497475"
     inkscape:cx="517.84975"
     inkscape:cy="286.54939"
     inkscape:document-units="mm"
     inkscape:current-layer="layer1"
     inkscape:document-rotation="0"
     showgrid="false"
     inkscape:window-width="1326"
     inkscape:window-height="654"
     inkscape:window-x="40"
     inkscape:window-y="40"
     inkscape:window-maximized="1" />
  <metadata
     id="metadata5">
    <rdf:RDF>
      <cc:Work
         rdf:about="">
        <dc:format>image/svg+xml</dc:format>
        <dc:type
           rdf:resource="http://purl.org/dc/dcmitype/StillImage" />
        <dc:title></dc:title>
      </cc:Work>
    </rdf:RDF>
  </metadata>
  <g
     transform="translate(-10.696779,-2.5532442)"
     inkscape:label="Layer 1"
     inkscape:groupmode="layer"
     id="layer1">
    <g
       aria-label="NK"
       id="text3217"
       style="font-style:normal;font-weight:normal;font-size:50.8px;line-height:1.25;font-family:sans-serif;letter-spacing:0.0396875px;word-spacing:0px;white-space:pre;shape-inside:url(#rect3219);mix-blend-mode:normal;fill:#000000;fill-opacity:1;stroke:none">
      <path
         d="m 35.767056,55.825659 c 1.6256,-0.6096 2.6924,-1.4224 3.6068,-2.3876 3.556,-3.6068 7.0612,-7.2644 10.6172,-10.8712 0.508,-0.5588 1.016,-1.2192 1.5748,-1.778 0.254,-0.2032 0.6604,-0.3048 1.27,-0.5588 -0.1016,0.6604 -0.0508,1.0668 -0.2032,1.3208 -0.508,0.8128 -1.016,1.6256 -1.6256,2.3368 -2.5908,3.0988 -5.1816,6.1976 -7.874,9.1948 -1.4224,1.6256 -2.9972,3.048 -4.826,4.1656 -1.4732,0.8128 -2.9464,1.1176 -4.572,0.9144 -1.6256,-0.254 -2.54,-1.2192 -2.6924,-2.8448 -0.1524,-2.2352 0.254,-4.4196 0.762,-6.604 1.3208,-5.3848 3.556,-10.4648 5.8928,-15.494 0.4572,-1.0668 1.1176,-2.032 1.3208,-3.6068 -0.8128,0.5588 -1.4224,0.8636 -1.9812,1.27 -2.8956,2.1844 -5.3848,4.826 -7.6708,7.7216 -3.7084,4.7244 -7.0104,9.7536 -10.1092,14.9352 -1.016,1.7272 -2.1336,3.5052 -3.2512,5.2324 -0.8128,1.27 -2.0828,1.6256 -3.5052,1.4224 -1.4224,-0.2032 -2.032,-0.8636 -1.7272,-2.286 0.4064,-1.9304 0.9652,-3.81 1.5748,-5.6896 3.2004,-9.144 7.3152,-17.8816 12.3952,-26.1112 0.4064,-0.6604 0.8636,-1.3208 1.4224,-1.8796 0.254,-0.254 0.9652,-0.3556 1.27,-0.2032 0.3048,0.1524 0.508,0.8128 0.4064,1.1684 -0.254,0.9652 -0.6604,1.9304 -1.0668,2.8956 -2.3876,5.4356 -4.7244,10.8712 -7.0612,16.3068 -0.6096,1.4732 -1.0668,2.9464 -1.4224,4.6228 0.3048,-0.3556 0.6604,-0.7112 0.9144,-1.0668 2.54,-3.7592 5.2832,-7.366 8.2296,-10.7696 3.2004,-3.7084 7.0612,-6.5532 11.0236,-9.2964 0.7112,-0.4572 1.6256,-0.7112 2.4384,-0.8128 1.4224,-0.1016 2.2352,0.762 2.1336,2.1844 -0.1016,1.1684 -0.4064,2.3368 -0.762,3.4544 -1.524,4.6228 -3.0988,9.144 -4.572,13.7668 -0.762,2.4892 -1.3208,5.0292 -1.9304,7.5692 -0.1016,0.4572 0,0.9144 0,1.778 z"
         style="font-style:normal;font-variant:normal;font-weight:normal;font-stretch:normal;font-size:50.8px;font-family:'Wild Youth';-inkscape-font-specification:'Wild Youth, Normal';font-variant-ligatures:normal;font-variant-caps:normal;font-variant-numeric:normal;font-variant-east-asian:normal"
         id="path3394" />
      <path
         d="m 64.697654,41.957259 c -2.1336,0.5588 -3.2512,1.6764 -4.0132,3.4544 -1.27,3.1496 -2.8448,6.1468 -4.2164,9.2964 -2.1844,4.826 -5.9436,8.2804 -10.007599,11.4808 -1.016,0.8128 -2.1336,0.9652 -3.3528,0.1016 0.254,-0.508 0.4064,-0.9652 0.7112,-1.27 5.079999,-5.1816 8.229599,-11.5824 11.379199,-17.9832 3.2004,-6.4516 6.2992,-12.9032 9.5504,-19.3548 1.4224,-2.794 3.048,-5.5372 4.6736,-8.2296 0.8636,-1.4732 1.9812,-2.6924 3.4036,-3.6068 0.4064,-0.2032 0.8636,-0.3048 1.6256,-0.508 -0.3048,1.4732 -1.1684,2.4384 -1.6764,3.5052 l -1.5748,3.2004 c -0.5588,1.1176 -1.0668,2.286 -1.6256,3.4036 -0.508,1.1176 -0.9652,2.1844 -1.4732,3.2512 -0.5588,1.1684 -1.0668,2.286 -1.5748,3.4544 -0.4572,1.0668 -1.016,2.1844 -1.4224,3.2512 -0.508,1.1684 -1.1176,2.2352 -1.3716,3.5052 1.016,0.1524 1.4224,-0.508 1.9304,-0.9652 7.7216,-6.4008 13.6144,-14.2748 17.8308,-23.4188 1.524,-3.3528 2.9972,-6.8071995 4.4704,-10.1599995 0.254,-0.508 0.508,-1.0668 0.9144,-1.3715999 0.7112,-0.5588 1.5748,-0.5588 2.4384,-0.1524 0.9144,0.4571999 0.8128,1.3207999 0.6604,2.0827999 -0.0508,0.4572 -0.2032,0.9144 -0.3556,1.3716 -2.9972,8.5851995 -7.0612,16.6115995 -13.0556,23.5203995 -2.6924,2.9972 -5.6388,5.7912 -8.7884,8.2804 -0.5588,0.4572 -1.1176,0.8636 -1.6256,1.3208 0.0508,0.2032 0.1016,0.4064 0.2032,0.4572 2.1844,1.27 2.794,3.302 2.6924,5.6896 -0.2032,3.556 -0.508,7.0612 -0.6604,10.6172 -0.0508,1.6764 0.1016,3.3528 0.4572,4.9784 0.2032,1.0668 0.6096,2.286 2.0828,2.54 0.3048,0.0508 0.762,0.7112 0.7112,1.016 -0.0508,0.3556 -0.508,0.8128 -0.8636,1.016 -1.4732,0.7112 -3.7084,0.3048 -4.7752,-1.0668 -2.4384,-3.048 -4.0132,-6.4008 -3.4036,-10.4648 0.3556,-2.6924 0.7112,-5.334 1.016,-8.0264 0.1016,-1.016 -0.0508,-2.032 -0.2032,-3.048 -0.0508,-0.4064 -0.4572,-0.762 -0.7112,-1.1684 z"
         style="font-style:normal;font-variant:normal;font-weight:normal;font-stretch:normal;font-size:50.8px;font-family:'Wild Youth';-inkscape-font-specification:'Wild Youth, Normal';font-variant-ligatures:normal;font-variant-caps:normal;font-variant-numeric:normal;font-variant-east-asian:normal"
         id="path3396" />
    </g>
    <text
       xml:space="preserve"
       id="text3229"
       style="font-style:normal;font-weight:normal;font-size:10.5833px;line-height:1.25;font-family:sans-serif;letter-spacing:0px;word-spacing:0px;white-space:pre;shape-inside:url(#rect3231);fill:#000000;fill-opacity:1;stroke:none;" />
    <text
       xml:space="preserve"
       id="text3235"
       style="font-style:normal;font-weight:normal;font-size:10.5833px;line-height:1.25;font-family:sans-serif;letter-spacing:0px;word-spacing:0px;white-space:pre;shape-inside:url(#rect3237);fill:#000000;fill-opacity:1;stroke:none;" />
    <text
       xml:space="preserve"
       id="text3241"
       style="font-style:normal;font-weight:normal;font-size:10.5833px;line-height:1.25;font-family:sans-serif;letter-spacing:0px;word-spacing:0px;white-space:pre;shape-inside:url(#rect3243);fill:#000000;fill-opacity:1;stroke:none;" />
  </g>
</svg>
