<?xml version="1.0" encoding="UTF-8" standalone="no"?>
<svg
   xmlns:dc="http://purl.org/dc/elements/1.1/"
   xmlns:cc="http://creativecommons.org/ns#"
   xmlns:rdf="http://www.w3.org/1999/02/22-rdf-syntax-ns#"
   xmlns:svg="http://www.w3.org/2000/svg"
   xmlns="http://www.w3.org/2000/svg"
   xmlns:sodipodi="http://sodipodi.sourceforge.net/DTD/sodipodi-0.dtd"
   xmlns:inkscape="http://www.inkscape.org/namespaces/inkscape"
   width="324.38388mm"
   height="80.60128mm"
   viewBox="0 0 324.38388 80.60128"
   version="1.1"
   id="svg8"
   sodipodi:docname="Nathan-King.svg"
   inkscape:version="1.0 (1.0+r73+1)">
  <defs
     id="defs2">
    <rect
       x="149.86581"
       y="82.470284"
       width="141.75818"
       height="16.297094"
       id="rect3243" />
    <rect
       x="-0.81210434"
       y="11.495953"
       width="265.34933"
       height="134.74065"
       id="rect3237" />
    <rect
       x="71.105919"
       y="26.586233"
       width="73.371605"
       height="43.111271"
       id="rect3231" />
    <rect
       x="10.723344"
       y="14.881567"
       width="381.84521"
       height="174.16878"
       id="rect3219" />
  </defs>
  <sodipodi:namedview
     fit-margin-bottom="0"
     fit-margin-right="0"
     fit-margin-left="0"
     fit-margin-top="0"
     lock-margins="false"
     id="base"
     pagecolor="#ffffff"
     bordercolor="#666666"
     borderopacity="1.0"
     inkscape:pageopacity="0.0"
     inkscape:pageshadow="2"
     inkscape:zoom="0.49497475"
     inkscape:cx="517.84975"
     inkscape:cy="286.54939"
     inkscape:document-units="mm"
     inkscape:current-layer="layer1"
     inkscape:document-rotation="0"
     showgrid="false"
     inkscape:window-width="1326"
     inkscape:window-height="654"
     inkscape:window-x="40"
     inkscape:window-y="40"
     inkscape:window-maximized="1" />
  <metadata
     id="metadata5">
    <rdf:RDF>
      <cc:Work
         rdf:about="">
        <dc:format>image/svg+xml</dc:format>
        <dc:type
           rdf:resource="http://purl.org/dc/dcmitype/StillImage" />
        <dc:title></dc:title>
      </cc:Work>
    </rdf:RDF>
  </metadata>
  <g
     transform="translate(-10.696779,-2.5532442)"
     inkscape:label="Layer 1"
     inkscape:groupmode="layer"
     id="layer1">
    <g
       id="g3449">
      <g
         style="font-style:normal;font-weight:normal;font-size:50.8px;line-height:1.25;font-family:sans-serif;letter-spacing:0px;word-spacing:0px;white-space:pre;shape-inside:url(#rect3219);mix-blend-mode:normal;fill:#000000;fill-opacity:1;stroke:none"
         id="text3217"
         aria-label="Nathan King">
        <path
           id="path3417"
           style="font-style:normal;font-variant:normal;font-weight:normal;font-stretch:normal;font-size:50.8px;font-family:'Wild Youth';-inkscape-font-specification:'Wild Youth, Normal';font-variant-ligatures:normal;font-variant-caps:normal;font-variant-numeric:normal;font-variant-east-asian:normal"
           d="m 35.767056,55.825659 c 1.6256,-0.6096 2.6924,-1.4224 3.6068,-2.3876 3.556,-3.6068 7.0612,-7.2644 10.6172,-10.8712 0.508,-0.5588 1.016,-1.2192 1.5748,-1.778 0.254,-0.2032 0.6604,-0.3048 1.27,-0.5588 -0.1016,0.6604 -0.0508,1.0668 -0.2032,1.3208 -0.508,0.8128 -1.016,1.6256 -1.6256,2.3368 -2.5908,3.0988 -5.1816,6.1976 -7.874,9.1948 -1.4224,1.6256 -2.9972,3.048 -4.826,4.1656 -1.4732,0.8128 -2.9464,1.1176 -4.572,0.9144 -1.6256,-0.254 -2.54,-1.2192 -2.6924,-2.8448 -0.1524,-2.2352 0.254,-4.4196 0.762,-6.604 1.3208,-5.3848 3.556,-10.4648 5.8928,-15.494 0.4572,-1.0668 1.1176,-2.032 1.3208,-3.6068 -0.8128,0.5588 -1.4224,0.8636 -1.9812,1.27 -2.8956,2.1844 -5.3848,4.826 -7.6708,7.7216 -3.7084,4.7244 -7.0104,9.7536 -10.1092,14.9352 -1.016,1.7272 -2.1336,3.5052 -3.2512,5.2324 -0.8128,1.27 -2.0828,1.6256 -3.5052,1.4224 -1.4224,-0.2032 -2.032,-0.8636 -1.7272,-2.286 0.4064,-1.9304 0.9652,-3.81 1.5748,-5.6896 3.2004,-9.144 7.3152,-17.8816 12.3952,-26.1112 0.4064,-0.6604 0.8636,-1.3208 1.4224,-1.8796 0.254,-0.254 0.9652,-0.3556 1.27,-0.2032 0.3048,0.1524 0.508,0.8128 0.4064,1.1684 -0.254,0.9652 -0.6604,1.9304 -1.0668,2.8956 -2.3876,5.4356 -4.7244,10.8712 -7.0612,16.3068 -0.6096,1.4732 -1.0668,2.9464 -1.4224,4.6228 0.3048,-0.3556 0.6604,-0.7112 0.9144,-1.0668 2.54,-3.7592 5.2832,-7.366 8.2296,-10.7696 3.2004,-3.7084 7.0612,-6.5532 11.0236,-9.2964 0.7112,-0.4572 1.6256,-0.7112 2.4384,-0.8128 1.4224,-0.1016 2.2352,0.762 2.1336,2.1844 -0.1016,1.1684 -0.4064,2.3368 -0.762,3.4544 -1.524,4.6228 -3.0988,9.144 -4.572,13.7668 -0.762,2.4892 -1.3208,5.0292 -1.9304,7.5692 -0.1016,0.4572 0,0.9144 0,1.778 z" />
        <path
           id="path3419"
           style="font-style:normal;font-variant:normal;font-weight:normal;font-stretch:normal;font-size:50.8px;font-family:'Wild Youth';-inkscape-font-specification:'Wild Youth, Normal';font-variant-ligatures:normal;font-variant-caps:normal;font-variant-numeric:normal;font-variant-east-asian:normal"
           d="m 60.644766,46.072059 c 1.016,-0.508 1.3208,-1.2192 1.7272,-1.778 0.8636,-1.27 1.6764,-2.5908 2.6416,-3.7084 1.1176,-1.3716 2.54,-1.3208 4.0132,0 -0.3556,0.7112 -0.7112,1.524 -1.1176,2.3368 -1.524,2.8956 -3.048,5.8928 -3.9116,9.0424 -0.3048,1.016 -0.5588,1.9812 -0.3556,3.2512 0.4572,-0.254 0.8128,-0.3048 1.1176,-0.508 0.3556,-0.2032 0.7112,-0.4572 1.016,-0.762 5.8928,-4.9276 10.668,-8.7376 16.5608,-13.716 0.5588,-0.4064 1.0668,-0.8128 1.9812,-1.524 -0.1524,0.762 -0.1524,1.1176 -0.3048,1.27 -0.508,0.6604 -1.0668,1.27 -1.6764,1.8796 -1.7272,1.6764 -2.3876,2.0828 -4.1148,3.81 -1.778,1.778 -3.5052,3.6576 -5.2324,5.5372 -1.7272,1.8288 -3.6068,3.6068 -5.6896,5.08 -1.4224,0.9652 -2.9464,1.4224 -4.6736,1.3716 -2.3368,-0.1524 -3.6576,-1.3208 -3.7592,-3.7084 -0.0508,-0.3556 0,-0.6604 0,-1.3208 -0.6604,0.6604 -0.9652,1.0668 -1.3716,1.4224 -1.3208,1.2192 -2.6416,2.4892 -4.064,3.556 -2.1844,1.5748 -4.7244,2.1844 -7.4676,1.6256 -2.4384,-0.4572 -3.4544,-1.7272 -3.1496,-4.1656 0.0508,-0.8636 0.254,-1.778 0.6096,-2.5908 1.7272,-4.1148 4.1148,-7.7724 7.3152,-10.8712 1.8288,-1.7272 3.8608,-2.9464 6.2992,-3.4036 0.8636,-0.1524 1.8288,-0.1524 2.6416,0 1.524,0.254 2.3368,1.1684 2.3368,2.7432 -0.0508,1.016 -0.3556,2.032 -0.5588,2.9972 -0.1524,0.6604 -0.4572,1.27 -0.8128,2.1336 z m -12.192,10.414 c 0.508,-0.2032 0.9144,-0.4064 1.3716,-0.6096 5.0292,-2.8448 8.128,-7.2136 9.7536,-12.7508 0.1524,-0.7112 0.2032,-1.4732 0.1524,-2.1844 -0.0508,-0.6604 -0.3048,-1.2192 -1.0668,-1.4732 -1.2192,0.3048 -2.3876,0.9144 -3.302,1.8796 -3.556,3.6068 -6.0452,7.8232 -7.2136,12.7 -0.2032,0.762 -0.3048,1.524 0.3048,2.4384 z" />
        <path
           id="path3421"
           style="font-style:normal;font-variant:normal;font-weight:normal;font-stretch:normal;font-size:50.8px;font-family:'Wild Youth';-inkscape-font-specification:'Wild Youth, Normal';font-variant-ligatures:normal;font-variant-caps:normal;font-variant-numeric:normal;font-variant-east-asian:normal"
           d="m 81.121134,54.454059 c 0.6096,-0.3048 1.2192,-0.4572 1.6764,-0.8128 1.4732,-1.1684 2.9972,-2.3368 4.3688,-3.6576 3.3528,-3.2004 6.6548,-6.5532 9.9568,-9.8044 0.4572,-0.4572 0.9652,-0.8636 1.4732,-1.2192 0.1524,-0.1016 0.6096,0.1016 0.8128,0.254 0.1524,0.1016 0.2032,0.508 0.1016,0.6604 -0.254,0.4572 -0.6096,0.9144 -0.9652,1.3716 -3.4036,4.0132 -6.8072,8.0772 -10.3124,12.0396 -1.0668,1.1684 -2.3368,2.1336 -3.6576,3.048 -1.5748,1.0668 -3.4036,1.27 -5.2324,1.016 -1.8288,-0.254 -2.794,-1.2192 -3.0988,-3.048 -0.3048,-1.8288 -0.0508,-3.6576 0.4572,-5.3848 1.2192,-4.2164 3.0988,-8.128 5.08,-11.9888 l 1.0668,-2.2352 c -2.3368,-0.2032 -4.4704,1.7272 -6.5024,-0.0508 0.1524,-1.1684 1.016,-1.3716 1.7272,-1.6256 1.5748,-0.4572 3.1496,-0.9652 4.7752,-1.2192 1.4732,-0.2032 2.3876,-0.9144 3.0988,-2.1844 1.4224,-2.3876 2.9464,-4.7244 4.4704,-7.0104 0.508,-0.8128 1.1176,-1.524 1.778,-2.2352 0.762,-0.8128 1.016,-0.762 2.5908,-0.4064 0.254,0.9144 -0.3556,1.6256 -0.7112,2.3876 -1.016,1.9304 -2.1336,3.9116 -3.1496,5.842 -0.3048,0.5588 -0.5588,1.1176 -0.8128,1.7272 1.016,0.6096 2.4892,-0.3556 3.2512,1.016 -0.6096,1.016 -1.6256,1.1176 -2.4892,1.27 -1.7272,0.254 -2.794,1.1176 -3.556,2.7432 -1.6764,3.7084 -3.5052,7.4168 -5.2324,11.1252 -0.8636,1.8796 -1.4224,3.8608 -1.4732,5.9944 0,0.762 -0.0508,1.524 0.508,2.3876 z" />
        <path
           id="path3423"
           style="font-style:normal;font-variant:normal;font-weight:normal;font-stretch:normal;font-size:50.8px;font-family:'Wild Youth';-inkscape-font-specification:'Wild Youth, Normal';font-variant-ligatures:normal;font-variant-caps:normal;font-variant-numeric:normal;font-variant-east-asian:normal"
           d="m 91.458934,57.298859 c 0.4572,-0.3048 0.9144,-0.5588 1.3208,-0.9144 2.3368,-1.8288 4.572,-3.7084 6.9088,-5.4356 1.371596,-1.016 2.946396,-1.8796 4.470396,-2.6924 0.6096,-0.3556 1.3208,-0.6096 1.9812,-0.7112 1.778,-0.254 2.9972,0.6604 2.9972,2.4892 -0.0508,1.8796 -0.3556,3.7592 -0.5588,5.6388 l -0.3556,2.9972 c 0.762,-0.5588 1.27,-0.8128 1.6764,-1.2192 4.6228,-4.572 9.2456,-9.144 13.8176,-13.716 1.1684,-1.1684 2.286,-2.3876 3.4544,-3.556 0.5588,-0.5588 1.1176,-1.1684 2.286,-0.9652 -0.2032,0.508 -0.254,1.016 -0.508,1.4224 -1.1684,1.524 -2.286,2.9972 -3.5052,4.5212 -3.302,4.1148 -6.604,8.2804 -10.4648,11.938 -1.2192,1.1176 -2.4892,2.1844 -3.8608,3.1496 -1.1684,0.8636 -2.54,1.27 -4.0132,1.1684 -1.9812,-0.1524 -2.9464,-1.0668 -2.8448,-3.048 0.1016,-1.8288 0.4572,-3.6068 0.762,-5.3848 0.1524,-1.016 0.4572,-1.9812 0.762,-3.302 -0.7112,0.3556 -1.1684,0.4572 -1.4732,0.7112 -1.6256,1.4224 -3.2512,2.794 -4.825996,4.2164 -1.7272,1.524 -3.302,3.2004 -5.0292,4.6736 -1.016,0.8636 -2.1844,1.6256 -3.4036,2.0828 -0.8636,0.3556 -1.8796,0.254 -2.794,0.1016 -1.3716,-0.2032 -1.9304,-0.9144 -1.8796,-2.286 0.1016,-1.3208 0.3048,-2.6924 0.6604,-3.9624 1.1176,-4.1656 2.8956,-8.0772 4.9784,-11.7856 3.9116,-6.9088 8.229596,-13.5128 13.258796,-19.6596 1.4224,-1.778 3.0988,-3.3528 4.826,-4.826 0.9652,-0.8128 2.1844,-1.4224 3.3528,-1.7272 2.54,-0.6604 4.1148,0.8128 3.6576,3.3528 -0.254,1.524 -0.762,3.0988 -1.4732,4.4704 -4.064,7.7216 -9.2456,14.5288 -16.001996,20.1168 -1.1684,0.9144 -2.4892,1.6256 -3.7592,2.4892 -0.4572,0.3556 -1.1176,0.7112 -1.3208,1.2192 -1.1684,2.5908 -2.2352,5.2324 -3.302,7.874 0,0.1016 0.1016,0.3048 0.2032,0.5588 z m 22.656796,-38.1508 c -0.9652,0.9144 -1.7272,1.524 -2.286,2.2352 -1.1684,1.3716 -2.3876,2.7432 -3.3528,4.2672 -3.4544,5.4864 -6.858,10.9728 -10.261596,16.51 -0.1016,0.2032 -0.1524,0.4572 -0.3048,1.016 0.508,-0.3556 0.7112,-0.4572 0.8636,-0.6604 4.775196,-4.7244 9.194796,-9.7536 12.953996,-15.3416 0.762,-1.1684 1.4732,-2.4384 2.0828,-3.7084 0.5588,-1.2192 0.8128,-2.54 0.3048,-4.318 z" />
        <path
           id="path3425"
           style="font-style:normal;font-variant:normal;font-weight:normal;font-stretch:normal;font-size:50.8px;font-family:'Wild Youth';-inkscape-font-specification:'Wild Youth, Normal';font-variant-ligatures:normal;font-variant-caps:normal;font-variant-numeric:normal;font-variant-east-asian:normal"
           d="m 134.95961,46.072059 c 1.016,-0.508 1.3208,-1.2192 1.7272,-1.778 0.8636,-1.27 1.6764,-2.5908 2.6416,-3.7084 1.1176,-1.3716 2.54,-1.3208 4.0132,0 -0.3556,0.7112 -0.7112,1.524 -1.1176,2.3368 -1.524,2.8956 -3.048,5.8928 -3.9116,9.0424 -0.3048,1.016 -0.5588,1.9812 -0.3556,3.2512 0.4572,-0.254 0.8128,-0.3048 1.1176,-0.508 0.3556,-0.2032 0.7112,-0.4572 1.016,-0.762 5.8928,-4.9276 10.668,-8.7376 16.5608,-13.716 0.5588,-0.4064 1.0668,-0.8128 1.9812,-1.524 -0.1524,0.762 -0.1524,1.1176 -0.3048,1.27 -0.508,0.6604 -1.0668,1.27 -1.6764,1.8796 -1.7272,1.6764 -2.3876,2.0828 -4.1148,3.81 -1.778,1.778 -3.5052,3.6576 -5.2324,5.5372 -1.7272,1.8288 -3.6068,3.6068 -5.6896,5.08 -1.4224,0.9652 -2.9464,1.4224 -4.6736,1.3716 -2.3368,-0.1524 -3.6576,-1.3208 -3.7592,-3.7084 -0.0508,-0.3556 0,-0.6604 0,-1.3208 -0.6604,0.6604 -0.9652,1.0668 -1.3716,1.4224 -1.3208,1.2192 -2.6416,2.4892 -4.064,3.556 -2.1844,1.5748 -4.7244,2.1844 -7.4676,1.6256 -2.4384,-0.4572 -3.4544,-1.7272 -3.1496,-4.1656 0.0508,-0.8636 0.254,-1.778 0.6096,-2.5908 1.7272,-4.1148 4.1148,-7.7724 7.3152,-10.8712 1.8288,-1.7272 3.8608,-2.9464 6.2992,-3.4036 0.8636,-0.1524 1.8288,-0.1524 2.6416,0 1.524,0.254 2.3368,1.1684 2.3368,2.7432 -0.0508,1.016 -0.3556,2.032 -0.5588,2.9972 -0.1524,0.6604 -0.4572,1.27 -0.8128,2.1336 z m -12.192,10.414 c 0.508,-0.2032 0.9144,-0.4064 1.3716,-0.6096 5.0292,-2.8448 8.128,-7.2136 9.7536,-12.7508 0.1524,-0.7112 0.2032,-1.4732 0.1524,-2.1844 -0.0508,-0.6604 -0.3048,-1.2192 -1.0668,-1.4732 -1.2192,0.3048 -2.3876,0.9144 -3.302,1.8796 -3.556,3.6068 -6.0452,7.8232 -7.2136,12.7 -0.2032,0.762 -0.3048,1.524 0.3048,2.4384 z" />
        <path
           id="path3427"
           style="font-style:normal;font-variant:normal;font-weight:normal;font-stretch:normal;font-size:50.8px;font-family:'Wild Youth';-inkscape-font-specification:'Wild Youth, Normal';font-variant-ligatures:normal;font-variant-caps:normal;font-variant-numeric:normal;font-variant-east-asian:normal"
           d="m 156.40117,46.732459 c 0.762,-0.5588 1.4732,-1.1176 2.286,-1.6256 2.3876,-1.5748 4.7244,-3.1496 7.1628,-4.6736 1.1176,-0.6604 2.4384,-1.0668 3.81,-1.1176 2.7432,0 4.1148,1.4224 3.8608,4.1656 -0.1016,1.3716 -0.3556,2.6924 -0.508,4.0132 -0.0508,0.3556 0,0.762 0,1.1684 0.9652,0.4572 1.5748,-0.2032 2.1844,-0.5588 5.08,-2.8956 10.1092,-5.8928 15.1892,-8.8392 0.6096,-0.3556 1.2192,-0.762 1.8288,-1.016 0.4064,-0.1524 0.9652,-0.1524 1.3716,-0.0508 0.6096,0.1016 0.8636,0.8636 0.508,1.27 -0.3556,0.508 -0.8128,0.9652 -1.3208,1.3208 -3.556,2.54 -7.0612,5.08 -10.668,7.5184 -1.778,1.1684 -3.7084,2.1844 -5.588,3.0988 -1.778,0.8128 -3.6576,1.1176 -5.588,0.7112 -2.0828,-0.4064 -2.8448,-1.3208 -2.6416,-3.4544 0.1016,-1.4224 0.4572,-2.794 0.7112,-4.2164 l 0.3556,-3.1496 c -0.8636,0.4064 -1.4224,0.5588 -1.9304,0.8636 -4.3688,2.9972 -8.6868,6.096 -12.446,9.8552 -0.3556,0.3048 -0.6604,0.6604 -1.016,0.9652 -0.9144,0.8128 -2.032,0.9144 -3.1496,0.6604 -1.27,-0.254 -1.7272,-1.016 -1.2192,-2.2352 1.2192,-2.6924 2.4892,-5.334 3.81,-7.9248 0.762,-1.4732 1.6764,-2.8448 2.5908,-4.2672 0.254,-0.4572 0.6604,-0.8636 1.1176,-1.1684 0.762,-0.4572 1.7272,0.1524 1.5748,1.016 -0.2032,1.016 -0.508,2.032 -0.8636,2.9464 -0.5588,1.4732 -1.1684,2.9464 -1.778,4.3688 0.1016,0.1524 0.254,0.254 0.3556,0.3556 z" />
        <path
           id="path3429"
           style="font-style:normal;font-variant:normal;font-weight:normal;font-stretch:normal;font-size:50.8px;font-family:'Wild Youth';-inkscape-font-specification:'Wild Youth, Normal';font-variant-ligatures:normal;font-variant-caps:normal;font-variant-numeric:normal;font-variant-east-asian:normal"
           d="m 233.32984,41.957259 c -2.1336,0.5588 -3.2512,1.6764 -4.0132,3.4544 -1.27,3.1496 -2.8448,6.1468 -4.2164,9.2964 -2.1844,4.826 -5.9436,8.2804 -10.0076,11.4808 -1.016,0.8128 -2.1336,0.9652 -3.3528,0.1016 0.254,-0.508 0.4064,-0.9652 0.7112,-1.27 5.08,-5.1816 8.2296,-11.5824 11.3792,-17.9832 3.2004,-6.4516 6.2992,-12.9032 9.5504,-19.3548 1.4224,-2.794 3.048,-5.5372 4.6736,-8.2296 0.8636,-1.4732 1.9812,-2.6924 3.4036,-3.6068 0.4064,-0.2032 0.8636,-0.3048 1.6256,-0.508 -0.3048,1.4732 -1.1684,2.4384 -1.6764,3.5052 l -1.5748,3.2004 c -0.5588,1.1176 -1.0668,2.286 -1.6256,3.4036 -0.508,1.1176 -0.9652,2.1844 -1.4732,3.2512 -0.5588,1.1684 -1.0668,2.286 -1.5748,3.4544 -0.4572,1.0668 -1.016,2.1844 -1.4224,3.2512 -0.508,1.1684 -1.1176,2.2352 -1.3716,3.5052 1.016,0.1524 1.4224,-0.508 1.9304,-0.9652 7.7216,-6.4008 13.6144,-14.2748 17.8308,-23.4188 1.524,-3.3528 2.9972,-6.8071995 4.4704,-10.1599995 0.254,-0.508 0.508,-1.0668 0.9144,-1.3715999 0.7112,-0.5588 1.5748,-0.5588 2.4384,-0.1524 0.9144,0.4571999 0.8128,1.3207999 0.6604,2.0827999 -0.0508,0.4572 -0.2032,0.9144 -0.3556,1.3716 -2.9972,8.5851995 -7.0612,16.6115995 -13.0556,23.5203995 -2.6924,2.9972 -5.6388,5.7912 -8.7884,8.2804 -0.5588,0.4572 -1.1176,0.8636 -1.6256,1.3208 0.0508,0.2032 0.1016,0.4064 0.2032,0.4572 2.1844,1.27 2.794,3.302 2.6924,5.6896 -0.2032,3.556 -0.508,7.0612 -0.6604,10.6172 -0.0508,1.6764 0.1016,3.3528 0.4572,4.9784 0.2032,1.0668 0.6096,2.286 2.0828,2.54 0.3048,0.0508 0.762,0.7112 0.7112,1.016 -0.0508,0.3556 -0.508,0.8128 -0.8636,1.016 -1.4732,0.7112 -3.7084,0.3048 -4.7752,-1.0668 -2.4384,-3.048 -4.0132,-6.4008 -3.4036,-10.4648 0.3556,-2.6924 0.7112,-5.334 1.016,-8.0264 0.1016,-1.016 -0.0508,-2.032 -0.2032,-3.048 -0.0508,-0.4064 -0.4572,-0.762 -0.7112,-1.1684 z" />
        <path
           id="path3431"
           style="font-style:normal;font-variant:normal;font-weight:normal;font-stretch:normal;font-size:50.8px;font-family:'Wild Youth';-inkscape-font-specification:'Wild Youth, Normal';font-variant-ligatures:normal;font-variant-caps:normal;font-variant-numeric:normal;font-variant-east-asian:normal"
           d="m 261.58972,25.701259 -1.3716,1.8796 c -0.9144,1.27 -1.8288,2.4892 -2.794,3.7592 -0.1016,0.2032 -0.2032,0.4572 -0.4064,0.5588 -0.3556,0.2032 -0.8636,0.5588 -1.2192,0.4064 -0.254,-0.1016 -0.4572,-0.7112 -0.5588,-1.1176 -0.0508,-0.254 0.1016,-0.6096 0.254,-0.8636 0.8128,-1.3716 1.5748,-2.7432 2.4892,-3.9624 0.8128,-1.016 1.8796,-1.3716 3.6068,-0.6604 z m -9.4488,28.1432 c 1.5748,-0.8128 2.6924,-1.6764 3.7592,-2.6416 4.7752,-4.2164 5.7912,-4.0132 10.5664,-8.2804 0.9144,-0.8128 1.778,-1.5748 2.6924,-2.3368 0.3556,-0.3048 0.762,-0.4064 1.5748,-0.8128 -0.254,0.8128 -0.3048,1.27 -0.5588,1.5748 -0.8128,1.0668 -1.778,2.032 -2.6416,2.9972 -2.4892,2.794 -0.4572,0.6604 -2.9972,3.4036 -1.8796,2.032 -4.4704,4.5212 -6.5024,6.4008 -1.0668,0.9652 -2.4384,1.7272 -3.7592,2.4384 -1.3716,0.762 -2.8956,0.7112 -4.3688,0.508 -1.9304,-0.3048 -2.9464,-1.4224 -2.8956,-3.4544 0.0508,-1.2192 0.254,-2.4892 0.508,-3.7084 0.762,-3.556 2.3876,-6.7056 4.3688,-9.7028 0.4572,-0.6096 1.016,-1.2192 1.6764,-1.6256 0.5588,-0.4572 1.3208,-0.5588 1.9812,-0.0508 0.7112,0.4572 0.3556,1.1176 0.1524,1.7272 -0.6604,1.8288 -1.4732,3.6576 -2.032,5.5372 -0.6096,2.1844 -1.0668,4.4704 -1.6256,6.7056 -0.0508,0.254 0.0508,0.6096 0.1016,1.3208 z" />
        <path
           id="path3433"
           style="font-style:normal;font-variant:normal;font-weight:normal;font-stretch:normal;font-size:50.8px;font-family:'Wild Youth';-inkscape-font-specification:'Wild Youth, Normal';font-variant-ligatures:normal;font-variant-caps:normal;font-variant-numeric:normal;font-variant-east-asian:normal"
           d="m 270.10587,46.732459 c 0.762,-0.5588 1.4732,-1.1176 2.286,-1.6256 2.3876,-1.5748 4.7244,-3.1496 7.1628,-4.6736 1.1176,-0.6604 2.4384,-1.0668 3.81,-1.1176 2.7432,0 4.1148,1.4224 3.8608,4.1656 -0.1016,1.3716 -0.3556,2.6924 -0.508,4.0132 -0.0508,0.3556 0,0.762 0,1.1684 0.9652,0.4572 1.5748,-0.2032 2.1844,-0.5588 5.08,-2.8956 10.1092,-5.8928 15.1892,-8.8392 0.6096,-0.3556 1.2192,-0.762 1.8288,-1.016 0.4064,-0.1524 0.9652,-0.1524 1.37159,-0.0508 0.6096,0.1016 0.8636,0.8636 0.508,1.27 -0.3556,0.508 -0.81279,0.9652 -1.32079,1.3208 -3.556,2.54 -7.0612,5.08 -10.668,7.5184 -1.778,1.1684 -3.7084,2.1844 -5.588,3.0988 -1.778,0.8128 -3.6576,1.1176 -5.588,0.7112 -2.0828,-0.4064 -2.8448,-1.3208 -2.6416,-3.4544 0.1016,-1.4224 0.4572,-2.794 0.7112,-4.2164 l 0.3556,-3.1496 c -0.8636,0.4064 -1.4224,0.5588 -1.9304,0.8636 -4.3688,2.9972 -8.6868,6.096 -12.446,9.8552 -0.3556,0.3048 -0.6604,0.6604 -1.016,0.9652 -0.9144,0.8128 -2.032,0.9144 -3.1496,0.6604 -1.27,-0.254 -1.7272,-1.016 -1.2192,-2.2352 1.2192,-2.6924 2.4892,-5.334 3.81,-7.9248 0.762,-1.4732 1.6764,-2.8448 2.5908,-4.2672 0.254,-0.4572 0.6604,-0.8636 1.1176,-1.1684 0.762,-0.4572 1.7272,0.1524 1.5748,1.016 -0.2032,1.016 -0.508,2.032 -0.8636,2.9464 -0.5588,1.4732 -1.1684,2.9464 -1.778,4.3688 0.1016,0.1524 0.254,0.254 0.3556,0.3556 z" />
        <path
           id="path3435"
           style="font-style:normal;font-variant:normal;font-weight:normal;font-stretch:normal;font-size:50.8px;font-family:'Wild Youth';-inkscape-font-specification:'Wild Youth, Normal';font-variant-ligatures:normal;font-variant-caps:normal;font-variant-numeric:normal;font-variant-east-asian:normal"
           d="m 314.20186,44.395659 c -1.5748,0.9144 -2.794,1.6256 -4.0132,2.286 -1.778,0.9652 -3.6576,1.4732 -5.6896,1.2192 -0.7112,-0.1016 -1.4224,-0.254 -2.032,-0.5588 -1.2192,-0.6096 -1.6764,-1.7272 -1.3208,-2.9972 0.1524,-0.5588 0.4064,-1.0668 0.6604,-1.524 1.3208,-2.1336 2.9972,-3.9116 5.1816,-5.1308 1.27,-0.7112 2.6416,-1.0668 4.1148,-0.9652 1.4732,0.1524 2.286,1.1176 2.032,2.5908 -0.1524,1.0668 -0.5588,2.0828 -0.9652,3.4036 2.8956,-1.9812 5.334,-4.1148 7.5692,-6.4516 0.4572,-0.4572 0.8636,-0.9652 1.3716,-1.3208 0.762,-0.5588 1.8288,-0.508 2.4384,0.0508 0.6096,0.5588 0.4064,1.3208 0.1016,1.9304 -1.0668,2.3876 -2.1336,4.7752 -3.2512,7.1628 -0.4572,0.9652 -1.016,1.9304 -1.6764,3.2512 0.6604,-0.2032 1.0668,-0.3048 1.4224,-0.508 4.064,-1.9304 8.0772,-3.9624 12.192,-5.8928 0.762,-0.4064 1.6256,-0.9652 2.7432,-0.4572 -0.3048,1.016 -1.2192,1.2192 -1.9304,1.5748 -4.0132,2.1336 -7.9756,4.2672 -11.9888,6.2992 -2.8956,1.4224 -4.9276,3.3528 -6.4008,6.2992 -2.6416,5.1308 -5.6896,10.0584 -8.6868,14.986 -2.032,3.4036 -4.4704,6.553199 -7.3152,9.296399 -1.2192,1.1176 -2.54,2.1844 -3.9116,3.0988 -1.6764,1.0668 -3.556,1.3208 -5.4864,0.9652 -1.8796,-0.3048 -2.794,-1.4224 -2.6416,-3.302 0.1016,-1.2192 0.4064,-2.54 0.9144,-3.6576 0.8636,-1.9304 1.8288,-3.860799 3.048,-5.587999 3.9624,-5.842 8.9916,-10.668 14.732,-14.6304 3.048,-2.0828 5.4356,-4.5212 6.9596,-7.8232 0.4572,-0.9144 1.0668,-1.778 1.5748,-2.6416 0.0508,-0.1524 0.0508,-0.3048 0.254,-0.9652 z m -3.2512,-0.9144 c -0.3556,-1.1684 -0.3556,-1.1684 0.0508,-2.3876 0.3556,-1.016 0.8636,-2.032 0.1016,-3.048 -2.0828,0.254 -4.064,1.778 -5.4356,4.064 -0.7112,1.1684 -1.2192,2.3876 -0.508,3.7084 2.032,-0.0508 3.2004,-0.5588 5.7912,-2.3368 z m -20.0152,37.236399 c 0.762,-0.508 1.3208,-0.762 1.7272,-1.1684 1.1176,-1.2192 2.286,-2.4384 3.2512,-3.7592 3.9116,-5.283199 7.0104,-11.074399 10.2616,-16.763999 0.0508,-0.1016 -0.0508,-0.254 -0.1524,-0.5588 -4.572,3.9116 -8.7376,8.0772 -11.8872,13.1572 -1.0668,1.727199 -1.9304,3.606799 -2.7432,5.486399 -0.4572,0.9652 -0.8636,2.032 -0.4572,3.6068 z" />
      </g>
    </g>
    <text
       xml:space="preserve"
       id="text3229"
       style="font-style:normal;font-weight:normal;font-size:10.5833px;line-height:1.25;font-family:sans-serif;letter-spacing:0px;word-spacing:0px;white-space:pre;shape-inside:url(#rect3231);fill:#000000;fill-opacity:1;stroke:none;" />
    <text
       xml:space="preserve"
       id="text3235"
       style="font-style:normal;font-weight:normal;font-size:10.5833px;line-height:1.25;font-family:sans-serif;letter-spacing:0px;word-spacing:0px;white-space:pre;shape-inside:url(#rect3237);fill:#000000;fill-opacity:1;stroke:none;" />
    <text
       xml:space="preserve"
       id="text3241"
       style="font-style:normal;font-weight:normal;font-size:10.5833px;line-height:1.25;font-family:sans-serif;letter-spacing:0px;word-spacing:0px;white-space:pre;shape-inside:url(#rect3243);fill:#000000;fill-opacity:1;stroke:none;" />
  </g>
</svg>
