<?xml version="1.0" encoding="UTF-8" standalone="no"?>
<svg
   xmlns:dc="http://purl.org/dc/elements/1.1/"
   xmlns:cc="http://creativecommons.org/ns#"
   xmlns:rdf="http://www.w3.org/1999/02/22-rdf-syntax-ns#"
   xmlns:svg="http://www.w3.org/2000/svg"
   xmlns="http://www.w3.org/2000/svg"
   xmlns:sodipodi="http://sodipodi.sourceforge.net/DTD/sodipodi-0.dtd"
   xmlns:inkscape="http://www.inkscape.org/namespaces/inkscape"
   inkscape:version="1.0 (1.0+r73+1)"
   sodipodi:docname="NK-highlight.svg"
   id="svg8"
   version="1.1"
   viewBox="0 0 82.146492 75.066284"
   height="75.066284mm"
   width="82.146492mm">
  <defs
     id="defs2">
    <rect
       x="149.86581"
       y="82.470284"
       width="141.75818"
       height="16.297094"
       id="rect3243" />
    <rect
       x="-0.81210434"
       y="11.495953"
       width="265.34933"
       height="134.74065"
       id="rect3237" />
    <rect
       x="71.105919"
       y="26.586233"
       width="73.371605"
       height="43.111271"
       id="rect3231" />
    <rect
       x="10.723344"
       y="14.881567"
       width="381.84521"
       height="174.16878"
       id="rect3219" />
    <filter
       inkscape:label="filter0"
       id="filter1879"
       style="color-interpolation-filters:sRGB" />
    <filter
       id="filter2325"
       style="color-interpolation-filters:sRGB;"
       inkscape:menu-tooltip="Imitate aged photograph"
       inkscape:menu="Image Effects"
       inkscape:label="Age">
      <feColorMatrix
         id="feColorMatrix2313"
         values="0"
         in="SourceGraphic"
         type="saturate" />
      <feColorMatrix
         id="feColorMatrix2315"
         result="result0"
         values="3 0 0 0 -0.3 0 3 0 0 -0.3 0 0 3 0 -0.3 0 0 0 1 0" />
      <feTurbulence
         id="feTurbulence2317"
         type="fractalNoise"
         numOctaves="2"
         baseFrequency="0.111" />
      <feColorMatrix
         id="feColorMatrix2319"
         values="0 0 0 0 0 0 0 0 0 0 0 0 0 0 0 0 0 0 255 -200" />
      <feGaussianBlur
         id="feGaussianBlur2321"
         stdDeviation="1" />
      <feComposite
         id="feComposite2323"
         operator="atop"
         in2="result0" />
    </filter>
    <filter
       id="filter2339"
       style="color-interpolation-filters:sRGB;"
       inkscape:menu-tooltip="Imitate aged photograph"
       inkscape:menu="Image Effects"
       inkscape:label="Age">
      <feColorMatrix
         id="feColorMatrix2327"
         values="0"
         in="SourceGraphic"
         type="saturate" />
      <feColorMatrix
         id="feColorMatrix2329"
         result="result0"
         values="3 0 0 0 -0.3 0 3 0 0 -0.3 0 0 3 0 -0.3 0 0 0 1 0" />
      <feTurbulence
         id="feTurbulence2331"
         type="fractalNoise"
         numOctaves="2"
         baseFrequency="0.111" />
      <feColorMatrix
         id="feColorMatrix2333"
         values="0 0 0 0 0 0 0 0 0 0 0 0 0 0 0 0 0 0 255 -200" />
      <feGaussianBlur
         id="feGaussianBlur2335"
         stdDeviation="1" />
      <feComposite
         id="feComposite2337"
         operator="atop"
         in2="result0" />
    </filter>
  </defs>
  <sodipodi:namedview
     inkscape:window-maximized="1"
     inkscape:window-y="40"
     inkscape:window-x="40"
     inkscape:window-height="654"
     inkscape:window-width="1326"
     fit-margin-bottom="0"
     fit-margin-right="0"
     fit-margin-left="0"
     fit-margin-top="0"
     inkscape:object-paths="false"
     showgrid="false"
     inkscape:document-rotation="0"
     inkscape:current-layer="layer1"
     inkscape:document-units="mm"
     inkscape:cy="127.13537"
     inkscape:cx="220.14412"
     inkscape:zoom="1"
     inkscape:pageshadow="2"
     inkscape:pageopacity="0.0"
     borderopacity="1.0"
     bordercolor="#666666"
     pagecolor="#ffffff"
     id="base" />
  <metadata
     id="metadata5">
    <rdf:RDF>
      <cc:Work
         rdf:about="">
        <dc:format>image/svg+xml</dc:format>
        <dc:type
           rdf:resource="http://purl.org/dc/dcmitype/StillImage" />
        <dc:title></dc:title>
      </cc:Work>
    </rdf:RDF>
  </metadata>
  <g
     transform="translate(-73.757089,-116.07997)"
     id="layer1"
     inkscape:groupmode="layer"
     inkscape:label="Layer 1">
    <g
       style="stroke-width:1.10713;fill:#5d6ee2;fill-opacity:1"
       transform="matrix(0.81682952,0,0,0.99879314,72.803964,113.54663)"
       inkscape:label="Layer 1"
       id="layer1-6">
      <g
         aria-label="NK"
         id="text3217"
         style="font-style:normal;font-weight:normal;font-size:50.8px;line-height:1.25;font-family:sans-serif;letter-spacing:0.0396875px;word-spacing:0px;white-space:pre;shape-inside:url(#rect3219);mix-blend-mode:normal;fill:#5d6ee2;fill-opacity:1;stroke:none;stroke-width:1.10713">
        <path
           sodipodi:nodetypes="ccccccccccccccccccscccssccccccccccccc"
           d="m 35.767056,55.825659 c 1.6256,-0.6096 2.6924,-1.4224 3.6068,-2.3876 3.556,-3.6068 7.0612,-7.2644 10.6172,-10.8712 0.508,-0.5588 1.016,-1.2192 1.5748,-1.778 0.254,-0.2032 15.709448,-15.290717 16.319048,-15.544717 -0.1016,0.6604 -3.947238,4.530862 -15.252248,16.306717 -0.508,0.8128 11.67241,-13.15747 11.06281,-12.44627 -2.5908,3.0988 -17.87001,20.98067 -20.56241,23.97787 -1.4224,1.6256 -2.9972,3.048 -4.826,4.1656 -1.4732,0.8128 -2.9464,1.1176 -4.572,0.9144 -1.6256,-0.254 -2.54,-1.2192 -2.6924,-2.8448 -0.1524,-2.2352 0.254,-4.4196 0.762,-6.604 1.3208,-5.3848 3.556,-10.4648 5.8928,-15.494 0.4572,-1.0668 1.1176,-2.032 1.3208,-3.6068 -0.8128,0.5588 -1.4224,0.8636 -1.9812,1.27 -2.8956,2.1844 -5.3848,4.826 -7.6708,7.7216 -3.7084,4.7244 -7.0104,9.7536 -10.1092,14.9352 -1.016,1.7272 -2.1336,3.5052 -3.2512,5.2324 -0.8128,1.27 -2.0828,1.6256 -3.5052,1.4224 -1.4224,-0.2032 -2.032,-0.8636 -1.7272,-2.286 0.4064,-1.9304 0.9652,-3.81 1.5748,-5.6896 3.2004,-9.144 7.3152,-17.8816 12.3952,-26.1112 0.4064,-0.6604 0.8636,-1.3208 1.4224,-1.8796 0.254,-0.254 0.9652,-0.3556 1.27,-0.2032 0.3048,0.1524 0.508,0.8128 0.4064,1.1684 -0.254,0.9652 -0.6604,1.9304 -1.0668,2.8956 -2.3876,5.4356 -4.7244,10.8712 -7.0612,16.3068 -0.6096,1.4732 -1.0668,2.9464 -1.4224,4.6228 0.3048,-0.3556 0.6604,-0.7112 0.9144,-1.0668 2.54,-3.7592 5.2832,-7.366 8.2296,-10.7696 3.2004,-3.7084 7.0612,-6.5532 11.0236,-9.2964 0.7112,-0.4572 1.6256,-0.7112 2.4384,-0.8128 1.4224,-0.1016 2.2352,0.762 2.1336,2.1844 -0.1016,1.1684 -0.4064,2.3368 -0.762,3.4544 -1.524,4.6228 -3.0988,9.144 -4.572,13.7668 -0.762,2.4892 -1.3208,5.0292 -1.9304,7.5692 -0.1016,0.4572 0,0.9144 0,1.778 z"
           style="font-style:normal;font-variant:normal;font-weight:normal;font-stretch:normal;font-size:50.8px;font-family:'Wild Youth';-inkscape-font-specification:'Wild Youth, Normal';font-variant-ligatures:normal;font-variant-caps:normal;font-variant-numeric:normal;font-variant-east-asian:normal;stroke-width:1.10713;fill:#5d6ee2;fill-opacity:1"
           id="path3394" />
        <path
           d="m 64.697654,41.957259 c -2.1336,0.5588 -3.2512,1.6764 -4.0132,3.4544 -1.27,3.1496 -2.8448,6.1468 -4.2164,9.2964 -2.1844,4.826 -5.9436,8.2804 -10.007599,11.4808 -1.016,0.8128 -2.1336,0.9652 -3.3528,0.1016 0.254,-0.508 0.4064,-0.9652 0.7112,-1.27 5.079999,-5.1816 8.229599,-11.5824 11.379199,-17.9832 3.2004,-6.4516 6.2992,-12.9032 9.5504,-19.3548 1.4224,-2.794 3.048,-5.5372 4.6736,-8.2296 0.8636,-1.4732 1.9812,-2.6924 3.4036,-3.6068 0.4064,-0.2032 0.8636,-0.3048 1.6256,-0.508 -0.3048,1.4732 -1.1684,2.4384 -1.6764,3.5052 l -1.5748,3.2004 c -0.5588,1.1176 -1.0668,2.286 -1.6256,3.4036 -0.508,1.1176 -0.9652,2.1844 -1.4732,3.2512 -0.5588,1.1684 -1.0668,2.286 -1.5748,3.4544 -0.4572,1.0668 -1.016,2.1844 -1.4224,3.2512 -0.508,1.1684 -1.1176,2.2352 -1.3716,3.5052 1.016,0.1524 1.4224,-0.508 1.9304,-0.9652 7.7216,-6.4008 13.6144,-14.2748 17.8308,-23.4188 1.524,-3.3528 2.9972,-6.8071995 4.4704,-10.1599995 0.254,-0.508 0.508,-1.0668 0.9144,-1.3715999 0.7112,-0.5588 1.5748,-0.5588 2.4384,-0.1524 0.9144,0.4571999 0.8128,1.3207999 0.6604,2.0827999 -0.0508,0.4572 -0.2032,0.9144 -0.3556,1.3716 -2.9972,8.5851995 -7.0612,16.6115995 -13.0556,23.5203995 -2.6924,2.9972 -5.6388,5.7912 -8.7884,8.2804 -0.5588,0.4572 -1.1176,0.8636 -1.6256,1.3208 0.0508,0.2032 0.1016,0.4064 0.2032,0.4572 2.1844,1.27 2.794,3.302 2.6924,5.6896 -0.2032,3.556 -0.508,7.0612 -0.6604,10.6172 -0.0508,1.6764 0.1016,3.3528 0.4572,4.9784 0.2032,1.0668 0.6096,2.286 2.0828,2.54 0.3048,0.0508 0.762,0.7112 0.7112,1.016 -0.0508,0.3556 -0.508,0.8128 -0.8636,1.016 -1.4732,0.7112 -3.7084,0.3048 -4.7752,-1.0668 -2.4384,-3.048 -4.0132,-6.4008 -3.4036,-10.4648 0.3556,-2.6924 0.7112,-5.334 1.016,-8.0264 0.1016,-1.016 -0.0508,-2.032 -0.2032,-3.048 -0.0508,-0.4064 -0.4572,-0.762 -0.7112,-1.1684 z"
           style="font-style:normal;font-variant:normal;font-weight:normal;font-stretch:normal;font-size:50.8px;font-family:'Wild Youth';-inkscape-font-specification:'Wild Youth, Normal';font-variant-ligatures:normal;font-variant-caps:normal;font-variant-numeric:normal;font-variant-east-asian:normal;stroke-width:1.10713;fill:#5d6ee2;fill-opacity:1"
           id="path3396" />
      </g>
      <g
         style="font-style:normal;font-weight:normal;font-size:10.5833px;line-height:1.25;font-family:sans-serif;letter-spacing:0px;word-spacing:0px;white-space:pre;shape-inside:url(#rect3231);fill:#5d6ee2;fill-opacity:1;stroke:none;stroke-width:1.10713"
         id="text3229" />
      <g
         style="font-style:normal;font-weight:normal;font-size:10.5833px;line-height:1.25;font-family:sans-serif;letter-spacing:0px;word-spacing:0px;white-space:pre;shape-inside:url(#rect3237);fill:#5d6ee2;fill-opacity:1;stroke:none;stroke-width:1.10713"
         id="text3235" />
      <g
         style="font-style:normal;font-weight:normal;font-size:10.5833px;line-height:1.25;font-family:sans-serif;letter-spacing:0px;word-spacing:0px;white-space:pre;shape-inside:url(#rect3243);fill:#5d6ee2;fill-opacity:1;stroke:none;stroke-width:1.10713"
         id="text3241" />
    </g>
    <ellipse
       ry="41.585846"
       rx="40.301941"
       cy="159.82001"
       cx="122.42838"
       id="path912"
       style="fill:none;fill-rule:evenodd;stroke-width:2.86499;stroke-linecap:round" />
    <path
       sodipodi:nodetypes="ccscccssccccsc"
       id="path1494"
       d="m 116.38077,116.08203 c -7.95934,-0.0785 -15.94341,2.08384 -22.847245,6.49805 -13.807678,8.8284 -20.381505,24.91823 -16.332484,40.24414 4.049021,15.32591 17.782674,26.57776 34.340199,28.31445 0.76588,0.0814 5.62365,-0.66816 5.70192,-1.45581 0.078,-0.78755 -4.65301,-1.31429 -5.41893,-1.3938 -15.504548,-1.62625 -28.212839,-12.13295 -31.933714,-26.21679 -3.720874,-14.08385 2.252109,-28.83549 15.113104,-37.0586 12.861,-8.22311 29.88482,-8.05531 42.55677,0.41797 12.67194,8.47329 18.31468,23.33648 14.27929,37.3457 -0.21906,0.75889 -1.05841,4.05552 -0.32023,4.28014 0.73739,0.22399 2.77223,-2.70761 2.9907,-3.46568 4.39017,-15.24084 -1.82056,-31.46215 -15.43028,-40.5625 -6.80487,-4.55018 -14.73976,-6.86878 -22.6991,-6.94727 z"
       style="color:#000000;font-style:normal;font-variant:normal;font-weight:normal;font-stretch:normal;font-size:medium;line-height:normal;font-family:sans-serif;font-variant-ligatures:normal;font-variant-position:normal;font-variant-caps:normal;font-variant-numeric:normal;font-variant-alternates:normal;font-variant-east-asian:normal;font-feature-settings:normal;font-variation-settings:normal;text-indent:0;text-align:start;text-decoration:none;text-decoration-line:none;text-decoration-style:solid;text-decoration-color:#000000;letter-spacing:normal;word-spacing:normal;text-transform:none;writing-mode:lr-tb;direction:ltr;text-orientation:mixed;dominant-baseline:auto;baseline-shift:baseline;text-anchor:start;white-space:normal;shape-padding:0;shape-margin:0;inline-size:0;clip-rule:nonzero;display:inline;overflow:visible;visibility:visible;opacity:1;isolation:auto;mix-blend-mode:normal;color-interpolation:sRGB;color-interpolation-filters:linearRGB;solid-color:#000000;solid-opacity:1;vector-effect:none;fill:#5d6ee2;fill-opacity:1;fill-rule:evenodd;stroke:none;stroke-width:2.865;stroke-linecap:round;stroke-linejoin:miter;stroke-miterlimit:4;stroke-dasharray:none;stroke-dashoffset:0;stroke-opacity:1;color-rendering:auto;image-rendering:auto;shape-rendering:auto;text-rendering:auto;enable-background:accumulate;stop-color:#000000;stop-opacity:1" />
  </g>
</svg>
